<?xml version="1.0" encoding="UTF-8"?>
<svg id="Layer_2" data-name="Layer 2" xmlns="http://www.w3.org/2000/svg" viewBox="0 0 182.13 78.65">
  <defs>
    <style>
      .cls-1 {
        fill: #fdb913;
      }

      .cls-2 {
        fill: #a2aebb;
        font-family: Bahnschrift-Light, Bahnschrift;
        font-size: 16.43px;
        font-variation-settings: 'wght' 300, 'wdth' 100;
        font-weight: 300;
      }

      .cls-3 {
        letter-spacing: -.03em;
      }

      .cls-4 {
        letter-spacing: .02em;
      }

      .cls-5 {
        letter-spacing: 0em;
      }

      .cls-6 {
        fill: #1c3144;
      }

      .cls-7 {
        letter-spacing: -.02em;
      }
    </style>
  </defs>
  <g id="Layer_1-2" data-name="Layer 1">
    <g>
      <g>
        <path class="cls-6" d="m0,47.13c0-.61.33-.94.94-.94h3.33c.61,0,1.08.33,1.08.94,0,3.19,2.25,4.17,6.04,4.17h3.04c3.75,0,6-1.08,6-5.11,0-3.14-.98-3.56-6.28-4.22l-2.53-.33C2.25,40.43.47,36.92.47,31.95c0-5.86,3.7-9.56,10.68-9.56h3.42c6.84,0,10.45,3.04,10.45,8.62,0,.61-.33.94-.94.94h-3.33c-.61,0-1.08-.33-1.08-.94,0-3.09-2.02-4.26-5.57-4.26h-2.58c-3.61,0-5.72,1.22-5.72,5.2,0,3.05.84,4.17,5.81,4.83l2.53.33c8.2,1.08,11.62,2.06,11.62,9.09,0,6.47-3.47,9.47-10.63,9.47h-4.5c-7.17,0-10.63-2.95-10.63-8.53Z"/>
        <path class="cls-6" d="m30.92,46.05v-14.05c0-6,2.86-9.6,11.06-9.6h4.64c8.2,0,11.1,3.61,11.1,9.6v14.05c0,6-2.91,9.6-11.1,9.6h-4.64c-8.2,0-11.06-3.61-11.06-9.6Zm11.43,4.78h3.89c4.12,0,6.14-1.27,6.14-4.87v-13.87c0-3.56-2.01-4.87-6.14-4.87h-3.89c-4.12,0-6.09,1.31-6.09,4.87v13.87c0,3.61,1.97,4.87,6.09,4.87Z"/>
        <path class="cls-6" d="m64.46,46.05v-22.49c0-.61.33-.94.94-.94h3.47c.61,0,.94.33.94.94v22.39c0,3.75,1.97,5.01,6.09,5.01h9.28c.61,0,.94.33.94.94v2.81c0,.61-.33.94-.94.94h-9.65c-8.2,0-11.06-3.61-11.06-9.6Z"/>
        <path class="cls-6" d="m103.75,54.49v-27.17h-8.95c-.61,0-.94-.33-.94-.94v-2.81c0-.61.33-.94.94-.94h23.24c.61,0,.94.33.94.94v2.81c0,.61-.33.94-.94.94h-8.95v27.17c0,.61-.33.94-.94.94h-3.47c-.61,0-.94-.33-.94-.94Z"/>
        <path class="cls-6" d="m123.2,46.05v-14.05c0-6,2.86-9.6,11.06-9.6h4.64c8.2,0,11.1,3.61,11.1,9.6v14.05c0,6-2.91,9.6-11.1,9.6h-4.64c-8.2,0-11.06-3.61-11.06-9.6Zm11.43,4.78h3.89c4.12,0,6.14-1.27,6.14-4.87v-13.87c0-3.56-2.02-4.87-6.14-4.87h-3.89c-4.12,0-6.09,1.31-6.09,4.87v13.87c0,3.61,1.97,4.87,6.09,4.87Z"/>
        <path class="cls-6" d="m156.27,54.49v-22.49c0-6,2.86-9.6,10.59-9.6h4.64c7.73,0,10.63,3.61,10.63,9.6v22.49c0,.61-.33.94-.94.94h-3.47c-.61,0-.94-.33-.94-.94v-22.39c0-3.56-2.01-4.87-5.67-4.87h-3.89c-3.65,0-5.62,1.31-5.62,4.87v22.39c0,.61-.33.94-.94.94h-3.47c-.61,0-.94-.33-.94-.94Z"/>
        <rect class="cls-6" x="80.78" y="31.77" width="5.34" height="14.16" rx="1.5" ry="1.5"/>
        <rect class="cls-6" x="80.78" y="22.78" width="5.34" height="5.45" rx="1.5" ry="1.5"/>
      </g>
      <text class="cls-2" transform="translate(47.87 74.65) scale(.9)"><tspan class="cls-7" x="0" y="0">C</tspan><tspan class="cls-5" x="9.84" y="0">O</tspan><tspan x="20.29" y="0">N</tspan><tspan class="cls-7" x="31.79" y="0">S</tspan><tspan class="cls-5" x="41.58" y="0">U</tspan><tspan class="cls-3" x="52.19" y="0">L</tspan><tspan class="cls-4" x="61.12" y="0">T</tspan><tspan x="69.35" y="0">ING</tspan></text>
      <path class="cls-1" d="m120.35,15.53c-9.06,0-15.16-.9-18.63-2.76-2.81-1.5-4.35-4.06-5.71-6.31-1.56-2.59-2.79-4.63-5.4-4.67-2.58.04-3.81,2.08-5.37,4.67-1.36,2.26-2.9,4.81-5.71,6.31-3.48,1.86-9.57,2.76-18.63,2.76-.49,0-.89-.4-.89-.89s.4-.89.89-.89c8.76,0,14.58-.83,17.79-2.55,2.37-1.27,3.72-3.5,5.02-5.66,1.63-2.69,3.31-5.48,6.9-5.54,3.62.05,5.3,2.84,6.93,5.54,1.3,2.16,2.65,4.39,5.02,5.66,3.21,1.72,9.03,2.55,17.79,2.55.49,0,.89.4.89.89s-.4.89-.89.89Z"/>
    </g>
  </g>
</svg>