<?xml version="1.0" encoding="UTF-8"?>
<svg id="Layer_2" data-name="Layer 2" xmlns="http://www.w3.org/2000/svg" viewBox="0 0 61.25 15.53">
  <defs>
    <style>
      .cls-1 {
        fill: #fdb913;
      }
    </style>
  </defs>
  <g id="Layer_1-2" data-name="Layer 1">
    <path class="cls-1" d="m60.35,15.53c-9.06,0-15.16-.9-18.63-2.76-2.81-1.5-4.35-4.06-5.71-6.31-1.56-2.59-2.79-4.63-5.4-4.67-2.58.04-3.81,2.08-5.37,4.67-1.36,2.26-2.9,4.81-5.71,6.31-3.48,1.86-9.57,2.76-18.63,2.76-.49,0-.89-.4-.89-.89s.4-.89.89-.89c8.76,0,14.58-.83,17.79-2.55,2.37-1.27,3.72-3.5,5.02-5.66C25.33,2.84,27.02.05,30.61,0c3.62.05,5.3,2.84,6.93,5.54,1.3,2.16,2.65,4.39,5.02,5.66,3.21,1.72,9.03,2.55,17.79,2.55.49,0,.89.4.89.89s-.4.89-.89.89Z"/>
  </g>
</svg>